<svg width="800px" height="800px" viewBox="-4.8 -4.8 57.60 57.60" xmlns="http://www.w3.org/2000/svg" fill="#ffffff" stroke="#ffffff">
  <g>
    <path d="M7.5,5.5h33a2,2,0,0,1,2,2v33a2,2,0,0,1-2,2H7.5a2,2,0,0,1-2-2V7.5A2,2,0,0,1,7.5,5.5Zm5,4.81a2.21,2.21,0,0,0-2.22,2.22v21a2.22,2.22,0,0,0,2.22,2.22h6.85a2.22,2.22,0,0,0,2.21-2.22v-21a2.21,2.21,0,0,0-2.21-2.22Zm16.09,0a2.22,2.22,0,0,0-2.22,2.22V24.28a2.23,2.23,0,0,0,2.22,2.22h6.85a2.22,2.22,0,0,0,2.22-2.22V12.53a2.21,2.21,0,0,0-2.22-2.22Z" fill="#ffffff" stroke="#ffffff"/>
  </g>
</svg>
